Coordinates
version=1
nRows=10
nColumns=40
inDegrees=yes

Units are S.I. units (second, meters, Newtons, ...)
Angles are in degrees.

endheader
time	pelvis_tilt	pelvis_list	pelvis_rotation	pelvis_tx	pelvis_ty	pelvis_tz	hip_flexion_r	hip_adduction_r	hip_rotation_r	knee_angle_r	knee_angle_r_beta	ankle_angle_r	subtalar_angle_r	mtp_angle_r	hip_flexion_l	hip_adduction_l	hip_rotation_l	knee_angle_l	knee_angle_l_beta	ankle_angle_l	subtalar_angle_l	mtp_angle_l	lumbar_extension	lumbar_bending	lumbar_rotation	arm_flex_r	arm_add_r	arm_rot_r	elbow_flex_r	pro_sup_r	wrist_flex_r	wrist_dev_r	arm_flex_l	arm_add_l	arm_rot_l	elbow_flex_l	pro_sup_l	wrist_flex_l	wrist_dev_l
     33.68000000	     -4.84511553	     -8.16462378	      3.22453245	      1.02605058	      0.91388190	      0.50752945	     -2.90086719	      6.24271654	    -18.04454969	      7.95837907	      7.95837907	     17.31771798	      8.06265280	     -2.42617774	     35.25604463	     -8.94661993	     -0.28920654	     18.48697883	     18.48697883	      2.96418216	    -10.29451349	      9.38005896	    -10.09986769	      7.74558753	      4.95494669	     50.66289864	    -14.04253930	     -0.23319190	     95.84873087	     44.12550374	      0.00000000	      0.00000000	    -21.46667591	     -5.95132443	      3.34314714	     28.52586215	     44.54220257	      0.00000000	      0.00000000
     33.69171429	     -4.86062789	     -8.11469528	      2.91718129	      1.02792885	      0.91210866	      0.50566722	     -3.39425928	      5.95980193	    -17.68380894	      8.41349643	      8.41349643	     17.93575877	      8.00678673	     -2.54340747	     34.92687881	     -8.95808760	     -0.92148057	     19.20706859	     19.20706859	      2.19790558	    -11.16887155	      9.36493579	     -9.75932808	      7.64621504	      5.03134197	     51.56368308	    -13.51119553	     -0.11871943	     96.70092230	     44.10820322	      0.00000000	      0.00000000	    -21.91437815	     -5.77966436	      3.59200386	     28.30555284	     44.50637858	      0.00000000	      0.00000000
     33.70342857	     -4.98245679	     -8.02491906	      2.62719951	      1.02967016	      0.91029746	      0.50362824	     -3.55174264	      5.54444161	    -17.31201835	      9.29152661	      9.29152661	     18.72771565	      7.76886055	     -2.44606291	     34.71302818	     -8.85545244	     -1.19300550	     19.94410372	     19.94410372	      1.12538231	    -12.39498239	      8.77264208	     -9.32893757	      7.49447213	      4.87870473	     52.17262179	    -12.85673051	      0.19624402	     97.90278360	     44.08240950	      0.00000000	      0.00000000	    -22.35599387	     -5.59132930	      4.04432620	     28.11321803	     44.44782594	      0.00000000	      0.00000000
     33.71514286	     -4.98468506	     -7.86841334	      2.39310095	      1.03149548	      0.90913864	      0.50139420	     -4.11566972	      5.14300713	    -16.99650797	      9.58684580	      9.58684580	     19.14657591	      7.75031097	     -2.52547676	     34.36801030	     -8.73774821	     -1.65628629	     20.73365760	     20.73365760	      0.53430144	    -12.91265207	      8.76764722	     -8.96919375	      7.29213490	      4.96449924	     52.48155196	    -12.69352095	      0.25332051	     98.21025768	     44.07460561	      0.00000000	      0.00000000	    -22.48725505	     -5.53252573	      4.11055481	     28.04608638	     44.43788311	      0.00000000	      0.00000000
     33.72685714	     -4.78805828	     -7.57676297	      2.12577776	      1.03324650	      0.90826235	      0.49904889	     -4.55939246	      4.47196898	    -16.56985802	     10.54384140	     10.54384140	     19.60376469	      7.48683992	     -2.63654247	     34.09853986	     -8.48285339	     -1.79666935	     22.13811355	     22.13811355	      0.32824392	    -13.88676333	      8.33825832	     -8.97540577	      6.81223573	      4.84626342	     52.83332348	    -12.28429639	      0.44482255	     98.92895318	     44.05146093	      0.00000000	      0.00000000	    -22.42932121	     -5.42156788	      4.25032372	     27.96885368	     44.42154496	      0.00000000	      0.00000000
     33.73857143	     -4.99513117	     -7.44957900	      1.96882338	      1.03425693	      0.90705947	      0.49641267	     -3.83714985	      3.78888826	    -16.12815334	     12.82108911	     12.82108911	     20.31959652	      6.45041168	     -2.73106885	     34.21320707	     -8.20754095	     -1.49908513	     23.18634070	     23.18634070	     -0.22706886	    -15.02102974	      7.29704836	     -8.61951647	      6.67502302	      4.44809837	     52.86680209	    -11.90689433	      0.91661862	    100.83137965	     43.99544558	      0.00000000	      0.00000000	    -22.24942251	     -5.31182321	      4.71121830	     27.69110567	     44.37098673	      0.00000000	      0.00000000
     33.75028571	     -4.92205286	     -7.22348918	      1.82484193	      1.03539318	      0.90687033	      0.49365521	     -3.67387806	      3.08733258	    -15.68012152	     14.54733509	     14.54733509	     20.52077192	      5.66591920	     -2.87021111	     34.00442898	     -7.90668060	     -1.44510817	     24.27881741	     24.27881741	     -0.19198607	    -15.69875683	      6.52933173	     -8.56771820	      6.36909849	      4.35631687	     52.60513629	    -11.98707256	      1.12108141	    102.03280912	     43.96742583	      0.00000000	      0.00000000	    -21.68720061	     -5.31833684	      5.08326305	     27.51878618	     44.33868423	      0.00000000	      0.00000000
     33.76200000	     -4.80987697	     -7.00578847	      1.68929733	      1.03637699	      0.90712954	      0.49077253	     -3.35709329	      2.34889664	    -15.23634931	     16.59606870	     16.59606870	     20.50763258	      4.78536628	     -3.28954347	     33.73631602	     -7.61955572	     -1.44466095	     25.32041143	     25.32041143	      0.24294519	    -16.12818055	      5.99865094	     -8.57064072	      6.08602538	      4.21062170	     52.15579668	    -12.08788935	      1.28538564	    103.13192219	     43.94039386	      0.00000000	      0.00000000	    -21.04251622	     -5.36718130	      5.38360638	     27.33776835	     44.31671386	      0.00000000	      0.00000000
     33.77371429	     -4.74525105	     -6.82013834	      1.55814926	      1.03710981	      0.90785025	      0.48786814	     -2.79541989	      1.66355834	    -14.60957015	     18.86696562	     18.86696562	     19.81365953	      3.25296014	     -4.67323653	     33.44464447	     -7.34510216	     -1.42925300	     26.19925336	     26.19925336	      1.02612639	    -16.35778109	      5.98882862	     -8.58672035	      5.81416995	      4.81797860	     50.75631259	    -13.23021673	      1.09904912	    105.67140404	     43.92966597	      0.00000000	      0.00000000	    -19.55935400	     -5.65133137	      6.58324869	     26.39430897	     44.21906620	      0.00000000	      0.00000000
     33.78542857	     -4.61688517	     -6.61063046	      1.43424430	      1.03759852	      0.90892365	      0.48485569	     -1.97462414	      0.81218631	    -14.33789647	     21.75581249	     21.75581249	     19.25464138	      2.20703855	     -5.42289092	     32.99729829	     -7.07152912	     -1.56893800	     26.90587020	     26.90587020	      1.87172805	    -16.41099285	      5.63940506	     -8.67073640	      5.54315008	      4.42322317	     50.01133359	    -13.16077368	      1.26894038	    106.17823501	     43.91820842	      0.00000000	      0.00000000	    -18.71406573	     -5.70855659	      6.77764380	     26.45907541	     44.21520714	      0.00000000	      0.00000000
